<svg xmlns="http://www.w3.org/2000/svg" width="16.739" height="12.173" viewBox="0 0 16.739 12.173">
  <path id="logo" d="M110.649,141.122a7.994,7.994,0,0,0-3.8-1.522l-.183.371a7.363,7.363,0,0,1,3.61,1.909,11.46,11.46,0,0,0-11.415,0,7.52,7.52,0,0,1,3.61-1.909l-.183-.371a7.947,7.947,0,0,0-3.8,1.522s-1.946,2.825-2.281,8.37a7.174,7.174,0,0,0,4.944,2.281l.623-.832a7.6,7.6,0,0,1-3.285-2.213,10.688,10.688,0,0,0,12.178,0,7.6,7.6,0,0,1-3.285,2.213l.623.832a7.174,7.174,0,0,0,4.944-2.281C112.595,143.947,110.649,141.122,110.649,141.122Zm-8.564,6.848a1.536,1.536,0,1,1,1.334-1.522A1.436,1.436,0,0,1,102.085,147.97Zm4.949,0a1.536,1.536,0,1,1,1.334-1.522A1.436,1.436,0,0,1,107.034,147.97Z" transform="translate(-96.2 -139.6)" fill="#bcbcbc"/>
</svg>
