<svg xmlns="http://www.w3.org/2000/svg" width="82" height="71.75" viewBox="0 0 82 71.75">
  <path id="Icon_awesome-quote-right" data-name="Icon awesome-quote-right" d="M74.313,2.25h-20.5a7.689,7.689,0,0,0-7.687,7.688v20.5a7.689,7.689,0,0,0,7.687,7.687H66.625v10.25a10.259,10.259,0,0,1-10.25,10.25H55.094a3.835,3.835,0,0,0-3.844,3.844v7.688A3.835,3.835,0,0,0,55.094,74h1.281A25.618,25.618,0,0,0,82,48.375V9.938A7.689,7.689,0,0,0,74.313,2.25Zm-46.125,0H7.687A7.689,7.689,0,0,0,0,9.938v20.5a7.689,7.689,0,0,0,7.687,7.687H20.5v10.25a10.259,10.259,0,0,1-10.25,10.25H8.969a3.835,3.835,0,0,0-3.844,3.844v7.688A3.835,3.835,0,0,0,8.969,74H10.25A25.618,25.618,0,0,0,35.875,48.375V9.938A7.689,7.689,0,0,0,28.187,2.25Z" transform="translate(0 -2.25)" fill="rgba(255,255,255,0.36)"/>
</svg>
