<svg xmlns="http://www.w3.org/2000/svg" width="14.343" height="14.343" viewBox="0 0 14.343 14.343">
  <path id="Icon_awesome-linkedin-in" data-name="Icon awesome-linkedin-in" d="M3.211,14.343H.237V4.768H3.211ZM1.722,3.461A1.73,1.73,0,1,1,3.444,1.723,1.737,1.737,0,0,1,1.722,3.461ZM14.34,14.343H11.373V9.682c0-1.111-.022-2.536-1.546-2.536-1.546,0-1.783,1.207-1.783,2.456v4.742H5.073V4.768H7.925V6.074h.042A3.125,3.125,0,0,1,10.78,4.527c3.009,0,3.563,1.982,3.563,4.556v5.26Z" transform="translate(0 0)" fill="#bcbcbc"/>
</svg>
