<svg xmlns="http://www.w3.org/2000/svg" width="16.74" height="13.95" viewBox="0 0 16.74 13.95">
  <path id="telegram" d="M1.151,6.005q6.74-2.953,8.989-3.894C14.421.321,15.31.01,15.89,0a1.011,1.011,0,0,1,.6.18.654.654,0,0,1,.219.42,2.756,2.756,0,0,1,.026.61c-.232,2.451-1.236,8.4-1.746,11.144-.216,1.162-.642,1.551-1.053,1.589-.9.083-1.575-.595-2.442-1.166-1.357-.894-2.123-1.451-3.44-2.324-1.522-1.008-.535-1.563.332-2.469.227-.237,4.171-3.844,4.247-4.172a.318.318,0,0,0-.072-.274.353.353,0,0,0-.319-.031q-.2.047-6.5,4.321a2.916,2.916,0,0,1-1.672.621,10.95,10.95,0,0,1-2.4-.57C.7,7.564-.063,7.4,0,6.862Q.056,6.443,1.151,6.005Z" fill="#bcbcbc"/>
</svg>
