<svg xmlns="http://www.w3.org/2000/svg" width="16.738" height="13.604" viewBox="0 0 16.738 13.604">
  <path id="Path_238" data-name="Path 238" d="M537,6285.089a9.809,9.809,0,0,0,15.044-8.288v-.4a7.64,7.64,0,0,0,1.694-1.766,7.464,7.464,0,0,1-1.946.5h0a3.569,3.569,0,0,0,1.5-1.908,11.007,11.007,0,0,1-1.658.7c-.162.055-.342.108-.5.162a3.442,3.442,0,0,0-5.964,2.343,3.678,3.678,0,0,0,.09.776,10.3,10.3,0,0,1-7.063-3.568s-1.64,2.252.991,4.558a3.559,3.559,0,0,1-1.5-.451,3.281,3.281,0,0,0,2.721,3.424,3.131,3.131,0,0,1-1.513.055,3.405,3.405,0,0,0,3.153,2.413,6.617,6.617,0,0,1-5.045,1.442Z" transform="translate(-537 -6272.999)" fill="#bcbcbc" fill-rule="evenodd"/>
</svg>
